<?xml version="1.0" encoding="utf-8" ?><svg xmlns="http://www.w3.org/2000/svg" xmlns:xlink="http://www.w3.org/1999/xlink" width="1041" height="883" viewBox="0 0 1041 883"><path fill="#FEFEFE" transform="scale(1.35841 1.35841)" d="M95.9788 203.631C119.86 203.982 141.211 215.776 148.082 240.256C151.254 251.56 149.912 272.627 149.92 285.047L149.942 363.34L149.882 398.49C149.842 422.935 149.778 439.913 158.142 462.991C169.525 494.398 192.275 518.494 224.398 526.509C275.481 539.254 323.519 501.206 325.138 449.871C325.244 446.518 312.191 412.142 310.282 406.855L271.758 300.547C267.206 288.011 257.204 262.953 258.399 250.693C261.932 214.43 302.815 192.547 334.875 208.633C364.983 223.739 369.103 256.764 379.149 285.206C379.733 286.859 380.193 288.214 381.751 288.951C384.272 287.902 387.766 273.631 388.947 270.53C395.798 252.615 399.868 233.272 414.068 219.464C444.395 189.937 495.449 203.142 504.916 245.232C506.686 253.106 506.078 255.088 504.542 262.898C501.275 279.501 495.041 295.24 489.282 311.105L474.872 350.473L451.978 414.34C449.243 421.884 439.447 445.695 439.776 452.34C441.838 494.061 479.421 529.957 521.349 528.783C583.87 527.032 614.842 472.586 614.772 415.6L614.666 304.498L614.719 270.566C614.758 263.628 614.417 256.116 615.511 249.295C619.878 223.919 634.713 206.762 661.279 203.899C692.184 200.57 717.071 222.504 720.101 252.986C721.109 263.126 720.435 275.623 720.433 286.067L720.41 345.644L720.365 398.978C720.341 414.72 720.499 430.754 718.855 446.332C713.989 492.447 695.403 537.847 664.952 572.996C631.576 611.521 584.258 634.908 533.533 638.634C487.308 642.029 441.764 626.055 406.598 596.177C402.149 592.397 397.411 588.441 393.47 584.16C389.519 579.869 386.799 575.659 382.285 571.826C379.044 574.768 375.885 579.181 372.683 582.55C341.013 615.499 291.025 638.083 245.335 639.081C131.808 641.563 47.4409 536.57 45.7393 428.487C45.5185 414.461 45.525 400.648 45.4901 386.735L45.4521 309.635L45.5043 272.255C45.5251 265.103 45.0079 255.717 46.3045 248.817C51.333 222.06 67.962 204.326 95.9788 203.631Z"/><path fill="#FEFEFE" transform="scale(1.35841 1.35841)" d="M555.058 10.8707C603.196 3.76017 647.961 37.0828 654.956 85.234C661.951 133.385 628.518 178.066 580.346 184.944C532.338 191.799 487.839 158.507 480.868 110.52C473.896 62.5327 507.084 17.9569 555.058 10.8707Z"/><path fill="#FEFEFE" transform="scale(1.35841 1.35841)" d="M186.096 10.9192C234.349 5.3843 277.944 40.0336 283.44 88.2873C288.935 136.541 254.247 180.104 205.985 185.559C157.779 191.007 114.275 156.371 108.786 108.174C103.297 59.9771 137.9 16.4476 186.096 10.9192Z"/></svg>